<svg width="23" height="29" viewBox="0 0 23 29" fill="none" xmlns="http://www.w3.org/2000/svg">
<path fill-rule="evenodd" clip-rule="evenodd" d="M1.21166 10.7883L11.4781 0.521855L11.4784 0.521864L21.742 10.7854C22.665 11.7084 22.665 13.2049 21.742 14.1279C20.819 15.0509 19.3225 15.0509 18.3995 14.1279L14.306 10.0344C14.292 10.0204 14.278 10.0066 14.2638 9.99282L14.2622 25.7412C14.2621 27.2328 13.0528 28.4421 11.5611 28.4423C10.0695 28.4424 8.8604 27.2333 8.86055 25.7417L8.86217 9.83611C8.78938 9.89915 8.71832 9.96524 8.64917 10.0344L4.55344 14.1301C3.63063 15.0529 2.13447 15.0529 1.21166 14.1301C0.288853 13.2073 0.288854 11.7111 1.21166 10.7883Z" fill="#3D3C3C"/>
</svg>
