<svg width="23" height="29" viewBox="0 0 23 29" fill="none" xmlns="http://www.w3.org/2000/svg">
<path fill-rule="evenodd" clip-rule="evenodd" d="M21.7883 18.2117L11.5219 28.4781L11.5216 28.4781L1.25801 18.2146C0.335013 17.2916 0.335014 15.7951 1.25801 14.8721C2.18101 13.9491 3.67748 13.9491 4.60047 14.8721L8.69397 18.9656C8.70796 18.9796 8.72202 18.9934 8.73616 19.0072L8.73776 3.25884C8.73791 1.7672 9.94725 0.557875 11.4389 0.557723C12.9305 0.55757 14.1396 1.76666 14.1394 3.25829L14.1378 19.1639C14.2106 19.1009 14.2817 19.0348 14.3508 18.9656L18.4466 14.8699C19.3694 13.9471 20.8655 13.9471 21.7883 14.8699C22.7111 15.7927 22.7111 17.2889 21.7883 18.2117Z" fill="#3D3C3C"/>
</svg>
