<svg width="10" height="16" viewBox="0 0 10 16" fill="none" xmlns="http://www.w3.org/2000/svg">
<path d="M10 0.449553C10 0.331717 9.95211 0.218708 9.86687 0.135386C9.78162 0.0520641 9.66601 0.00525411 9.54545 0.00525411H7.27273C6.12829 -0.050469 5.00782 0.338826 4.15611 1.08808C3.30441 1.83733 2.79071 2.88564 2.72727 4.00394V6.40315H0.454545C0.333993 6.40315 0.218377 6.44996 0.133133 6.53329C0.0478896 6.61661 0 6.72962 0 6.84745V9.1578C0 9.27564 0.0478896 9.38865 0.133133 9.47197C0.218377 9.55529 0.333993 9.6021 0.454545 9.6021H2.72727V15.5557C2.72727 15.6735 2.77516 15.7865 2.86041 15.8699C2.94565 15.9532 3.06127 16 3.18182 16H5.90909C6.02964 16 6.14526 15.9532 6.2305 15.8699C6.31575 15.7865 6.36364 15.6735 6.36364 15.5557V9.6021H8.74545C8.84654 9.60352 8.94522 9.57196 9.02589 9.51242C9.10657 9.45287 9.16464 9.36874 9.19091 9.27332L9.84546 6.96297C9.86354 6.89732 9.86597 6.82849 9.85256 6.76178C9.83915 6.69507 9.81026 6.63226 9.7681 6.57818C9.72595 6.5241 9.67166 6.4802 9.60942 6.44986C9.54718 6.41951 9.47864 6.40353 9.40909 6.40315H6.36364V4.00394C6.38625 3.78399 6.49192 3.58018 6.66002 3.4323C6.82812 3.28442 7.04658 3.2031 7.27273 3.2042H9.54545C9.66601 3.2042 9.78162 3.15739 9.86687 3.07407C9.95211 2.99075 10 2.87774 10 2.7599V0.449553Z" fill="#F2F2F2"/>
</svg>
