<svg width="60" height="60" viewBox="0 0 60 60" fill="none" xmlns="http://www.w3.org/2000/svg">
<rect width="60" height="60" fill="#825841"/>
<path d="M30.0914 4.50664L51.9999 11.3705V29.8046C51.9999 42.754 42.8087 53.8812 30.0922 56.3267C17.3758 53.8812 8.18457 42.754 8.18457 29.8046V11.3705L30.0931 4.50664" stroke="#232120" stroke-width="2.1065" stroke-miterlimit="10" stroke-linecap="round" stroke-linejoin="round"/>
<path d="M43.6455 39.6756C45.2189 36.7105 46.1019 33.3426 46.1019 29.8049V15.7039L30.0924 10.6882L14.083 15.7039V29.8049C14.083 39.5264 20.7503 47.9652 30.0924 50.2896C32.8182 49.6114 35.3162 48.4128 37.4873 46.8135" stroke="#232120" stroke-width="2.1065" stroke-miterlimit="10" stroke-linecap="round" stroke-linejoin="round"/>
<path d="M28.18 37.29L21.127 30.237L24.7018 26.6621L28.18 30.1404L35.4844 22.8359L39.0592 26.4108L28.18 37.29Z" stroke="#232120" stroke-width="2.1065" stroke-miterlimit="10" stroke-linecap="round" stroke-linejoin="round"/>
</svg>
