<svg width="60" height="60" viewBox="0 0 60 60" fill="none" xmlns="http://www.w3.org/2000/svg">
<rect width="60" height="60" fill="#825841"/>
<path d="M23.4637 12.4958C20.9761 13.2695 18.6771 14.4709 16.6523 16.0139" stroke="#232120" stroke-width="1.87275" stroke-miterlimit="10" stroke-linecap="round" stroke-linejoin="round"/>
<path d="M43.2586 15.8943C41.2412 14.3851 38.9573 13.2127 36.4902 12.4602" stroke="#232120" stroke-width="1.87275" stroke-miterlimit="10" stroke-linecap="round" stroke-linejoin="round"/>
<path d="M52.1328 42.7949V33.6007C52.1328 28.484 50.3938 23.7734 47.4746 20.0278" stroke="#232120" stroke-width="1.87275" stroke-miterlimit="10" stroke-linecap="round" stroke-linejoin="round"/>
<path d="M12.5943 20.0283C9.67537 23.7738 7.93652 28.4842 7.93652 33.6008V42.7949" stroke="#232120" stroke-width="1.87275" stroke-miterlimit="10" stroke-linecap="round" stroke-linejoin="round"/>
<path d="M33.0115 8.00008H27.0585C24.8842 8.00008 23.2146 9.92705 23.5244 12.0791L26.7722 34.6486C26.9085 35.5959 27.7202 36.2991 28.6772 36.2991H31.3927C32.3497 36.2991 33.1614 35.5959 33.2977 34.6486L36.5455 12.0791C36.8553 9.92705 35.1857 8.00008 33.0115 8.00008Z" stroke="#232120" stroke-width="1.87275" stroke-miterlimit="10" stroke-linecap="round" stroke-linejoin="round"/>
<path d="M45.173 32.1318C43.9017 32.1318 42.8711 31.1013 42.8711 29.8299V17.5023C42.8711 16.231 43.9017 15.2003 45.173 15.2003C46.4443 15.2003 47.4749 16.231 47.4749 17.5023V29.8299C47.4749 31.1013 46.4443 32.1318 45.173 32.1318Z" stroke="#232120" stroke-width="1.87275" stroke-miterlimit="10" stroke-linecap="round" stroke-linejoin="round"/>
<path d="M14.8966 32.1318C16.1679 32.1318 17.1985 31.1013 17.1985 29.8299V17.5023C17.1985 16.231 16.1679 15.2003 14.8966 15.2003C13.6253 15.2003 12.5947 16.231 12.5947 17.5023V29.8299C12.5947 31.1013 13.6253 32.1318 14.8966 32.1318Z" stroke="#232120" stroke-width="1.87275" stroke-miterlimit="10" stroke-linecap="round" stroke-linejoin="round"/>
<path d="M25.8211 51.0732H15.2783C10.7064 51.0732 7 47.367 7 42.795H53.0696C53.0696 47.367 49.3633 51.0732 44.7914 51.0732H34.2486" stroke="#232120" stroke-width="1.87275" stroke-miterlimit="10" stroke-linecap="round" stroke-linejoin="round"/>
</svg>
