<svg width="61" height="61" viewBox="0 0 61 61" fill="none" xmlns="http://www.w3.org/2000/svg">
<path d="M0 60.7707H13.4245L9.07901 56.4252L17.6867 47.8146L26.2972 56.4252L21.9517 60.7707H35.4222L17.7097 43.0581L0 60.7707Z" fill="url(#paint0_linear_615_73)"/>
<path d="M41.5209 40.4974L42.8544 38.1982L45.1537 39.5317L43.8201 41.8309L41.5209 40.4974ZM34.0485 39.1236L34.5629 37.6694L36.0172 38.1809L35.5056 39.6352L34.0485 39.1236ZM37.5749 36.7554L39.3913 35.7064L40.4374 37.5199L38.6239 38.566L37.5749 36.7554ZM27.9757 34.2378L29.7892 33.1916L30.8353 35.0051L29.0247 36.0513L27.9757 34.2378ZM26.7427 31.7633L27.2572 30.3061L28.7114 30.8206L28.1998 32.2748L26.7427 31.7633ZM27.9642 28.3144L29.8898 24.5897L33.626 26.5095L31.7033 30.2458L27.9642 28.3144ZM33.0224 20.6034L34.4163 19.9453L35.0774 21.3392L33.6806 22.0002L33.0224 20.6034ZM20.9803 20.2844L22.9778 19.6521L23.61 21.6467L21.6155 22.279L20.9803 20.2844ZM0 0.0686035V43.5496L9.10201 34.4505L17.7241 25.8284L26.3461 34.4505L30.3697 38.4741C32.7386 34.3742 35.5135 30.5229 38.6526 26.978L37.1352 25.4605L41.6646 20.9311L42.8228 22.1238L41.61 23.8482C42.0354 23.4344 43.1591 22.4543 43.1591 22.4543C46.0935 19.8677 51.5426 15.4877 58.104 12.3608L45.5819 24.8829L43.3172 27.1476L46.766 26.0555L48.3352 27.6275L43.7971 32.1541L41.0524 29.4094L31.1687 39.296L44.0443 52.1745L48.0679 48.1509L58.7909 58.8738L60.6935 60.7764V47.4841L45.2945 32.0851L48.2519 29.1307L60.6935 41.5723V0.0686035H0Z" fill="url(#paint1_linear_615_73)"/>
<defs>
<linearGradient id="paint0_linear_615_73" x1="17.8444" y1="43.0575" x2="17.8444" y2="60.902" gradientUnits="userSpaceOnUse">
<stop stop-color="#D9D9D9"/>
<stop offset="1" stop-color="#3B3B3B"/>
</linearGradient>
<linearGradient id="paint1_linear_615_73" x1="30.3496" y1="0.608919" x2="30.3496" y2="59.0779" gradientUnits="userSpaceOnUse">
<stop stop-color="#D9D9D9"/>
<stop offset="1" stop-color="#3B3B3B"/>
</linearGradient>
</defs>
</svg>
