<svg width="20" height="20" viewBox="0 0 20 20" fill="none" xmlns="http://www.w3.org/2000/svg">
<path fill-rule="evenodd" clip-rule="evenodd" d="M13.8645 11.7432C15.7938 8.83119 15.4756 4.86908 12.9099 2.30339C9.98097 -0.625543 5.23223 -0.625543 2.3033 2.30339C-0.625631 5.23232 -0.625631 9.98106 2.3033 12.91C4.86899 15.4757 8.8311 15.7939 11.7432 13.8646L16.4454 18.5668C17.0312 19.1526 17.981 19.1526 18.5668 18.5668C19.1525 17.9811 19.1525 17.0313 18.5668 16.4455L13.8645 11.7432ZM11.1349 11.135C9.18627 13.0836 6.02693 13.0836 4.07831 11.135C2.12968 9.18636 2.12968 6.02702 4.07831 4.0784C6.02693 2.12977 9.18627 2.12977 11.1349 4.0784C13.0835 6.02702 13.0835 9.18636 11.1349 11.135Z" fill="#D9D9D9"/>
</svg>
