<svg xmlns="http://www.w3.org/2000/svg" version="1.1" xmlns:xlink="http://www.w3.org/1999/xlink"  width="512" height="512" x="0" y="0" viewBox="0 0 512 512" style="enable-background:new 0 0 512 512" xml:space="preserve" class=""><g><path d="M403.835 94.727v302.127c0 .603-.01 1.206-.04 1.81-.945 20.691-18.026 37.189-38.969 37.189H145.532c-21.545 0-39.009-17.463-39.009-38.999V47.052c0-18.519 12.899-34.022 30.202-38.013a39.185 39.185 0 0 1 8.807-.995h174.192a38.88 38.88 0 0 1 16.941 3.881c10.538 5.072 13.506 11.481 32.444 30.845 21.787 23.657 26.988 26.082 31.428 36.324a38.577 38.577 0 0 1 3.298 15.633z" style="" fill="#dbdbdb" data-original="#ffc477" class=""></path><path d="M403.835 94.727v302.127c0 .603-.01 1.206-.04 1.81a39.127 39.127 0 0 1-8.807.995H175.694c-21.545 0-39.009-17.463-39.009-38.999V10.858c0-.613.01-1.217.04-1.82a39.185 39.185 0 0 1 8.807-.995h174.192a38.88 38.88 0 0 1 16.941 3.881 38.976 38.976 0 0 1 11.562 8.506l20.882 22.34 23.908 25.014a38.436 38.436 0 0 1 7.52 11.311 38.57 38.57 0 0 1 3.298 15.632z" style="" fill="#ffffff" data-original="#ffdaaa" class=""></path><path d="M503.91 230.021v219.314c0 12.195-3.961 23.476-10.677 32.604-10.024 13.653-26.2 22.521-44.448 22.521H305.539c-30.443 0-55.125-24.682-55.125-55.125V230.021c0-22.752 13.794-42.286 33.469-50.701a54.895 54.895 0 0 1 21.656-4.424h143.247c30.452 0 55.124 24.682 55.124 55.125z" style="" fill="#bbbbbb" data-original="#4cba68" class=""></path><path d="M503.91 230.021v219.314c0 12.195-3.961 23.476-10.677 32.604a54.895 54.895 0 0 1-21.656 4.424H328.331c-30.443 0-55.125-24.682-55.125-55.125V211.924c0-12.195 3.961-23.476 10.677-32.604a54.895 54.895 0 0 1 21.656-4.424h143.247c30.452 0 55.124 24.682 55.124 55.125z" style="" fill="#ffffff" data-original="#7ccc92" class=""></path><path d="M398.285 374.213v25.758c0 4.554-3.69 8.244-8.234 8.244h-25.768a8.243 8.243 0 0 1-8.244-8.244v-25.758a8.243 8.243 0 0 1 8.244-8.244h25.768c4.544 0 8.234 3.689 8.234 8.244z" style="" fill="#dfdfdf" data-original="#2c733f" class=""></path><path d="M466.028 224.853v27.598c0 9.813-7.953 17.775-17.775 17.775H306.072c-9.813 0-17.775-7.963-17.775-17.775v-27.598c0-9.813 7.963-17.775 17.775-17.775h142.181c9.822 0 17.775 7.963 17.775 17.775z" style="" fill="#dfdfdf" data-original="#1e81ce" class=""></path><path d="M466.028 224.853v27.598c0 9.813-7.953 17.775-17.775 17.775h-112.02c-9.813 0-17.775-7.963-17.775-17.775v-27.598c0-9.813 7.963-17.775 17.775-17.775h112.019c9.823 0 17.776 7.963 17.776 17.775z" style="" fill="#ffffff" data-original="#3d9ae2" class=""></path><path d="M330.553 374.213v25.758a8.243 8.243 0 0 1-8.244 8.244h-25.768c-4.544 0-8.244-3.69-8.244-8.244v-25.758c0-4.554 3.7-8.244 8.244-8.244h25.768a8.242 8.242 0 0 1 8.244 8.244zM398.285 306.852v25.758c0 4.554-3.69 8.244-8.234 8.244h-25.768a8.243 8.243 0 0 1-8.244-8.244v-25.758a8.243 8.243 0 0 1 8.244-8.244h25.768c4.544 0 8.234 3.69 8.234 8.244z" style="" fill="#dfdfdf" data-original="#2c733f" class=""></path><path d="M466.842 306.852v25.758a8.243 8.243 0 0 1-8.244 8.244H432.84a8.243 8.243 0 0 1-8.244-8.244v-25.758a8.243 8.243 0 0 1 8.244-8.244h25.758a8.243 8.243 0 0 1 8.244 8.244z" style="" fill="#ffffff" data-original="#ee8700" class=""></path><path d="M330.553 306.852v25.758a8.243 8.243 0 0 1-8.244 8.244h-25.768c-4.544 0-8.244-3.69-8.244-8.244v-25.758c0-4.554 3.7-8.244 8.244-8.244h25.768a8.243 8.243 0 0 1 8.244 8.244zM398.285 438.265v25.768c0 4.554-3.69 8.244-8.234 8.244h-25.768a8.243 8.243 0 0 1-8.244-8.244v-25.768c0-4.544 3.69-8.234 8.244-8.234h25.768a8.239 8.239 0 0 1 8.234 8.234zM330.553 438.265v25.768a8.243 8.243 0 0 1-8.244 8.244h-25.768c-4.544 0-8.244-3.69-8.244-8.244v-25.768c0-4.544 3.7-8.234 8.244-8.234h25.768c4.554 0 8.244 3.69 8.244 8.234z" style="" fill="#dfdfdf" data-original="#2c733f" class=""></path><path d="M466.842 378.214v79.998c0 7.772-6.294 14.065-14.055 14.065h-14.136c-7.762 0-14.055-6.294-14.055-14.065v-79.998c0-6.766 5.489-12.246 12.246-12.246h17.755c6.766.001 12.245 5.48 12.245 12.246z" style="" fill="#ffffff" data-original="#ee8700" class=""></path><path d="M398.285 374.213v7.661c0 4.554-3.69 8.244-8.234 8.244h-25.768a8.243 8.243 0 0 1-8.244-8.244v-7.661a8.243 8.243 0 0 1 8.244-8.244h25.768c4.544 0 8.234 3.689 8.234 8.244zM330.553 374.213v7.661a8.243 8.243 0 0 1-8.244 8.244h-25.768c-4.544 0-8.244-3.69-8.244-8.244v-7.661c0-4.554 3.7-8.244 8.244-8.244h25.768a8.242 8.242 0 0 1 8.244 8.244zM398.285 306.852v7.661c0 4.554-3.69 8.244-8.234 8.244h-25.768a8.243 8.243 0 0 1-8.244-8.244v-7.661a8.243 8.243 0 0 1 8.244-8.244h25.768c4.544 0 8.234 3.69 8.234 8.244z" style="" fill="#ffffff" data-original="#317f46" class=""></path><path d="M466.842 306.852v7.661a8.243 8.243 0 0 1-8.244 8.244H432.84a8.243 8.243 0 0 1-8.244-8.244v-7.661a8.243 8.243 0 0 1 8.244-8.244h25.758a8.243 8.243 0 0 1 8.244 8.244z" style="" fill="#ffffff" data-original="#ff9811" class=""></path><path d="M330.553 306.852v7.661a8.243 8.243 0 0 1-8.244 8.244h-25.768c-4.544 0-8.244-3.69-8.244-8.244v-7.661c0-4.554 3.7-8.244 8.244-8.244h25.768a8.243 8.243 0 0 1 8.244 8.244zM398.285 438.265v7.671c0 4.554-3.69 8.244-8.234 8.244h-25.768a8.243 8.243 0 0 1-8.244-8.244v-7.671c0-4.544 3.69-8.234 8.244-8.234h25.768a8.239 8.239 0 0 1 8.234 8.234zM330.553 438.265v7.671a8.243 8.243 0 0 1-8.244 8.244h-25.768c-4.544 0-8.244-3.69-8.244-8.244v-7.671c0-4.544 3.7-8.234 8.244-8.234h25.768c4.554 0 8.244 3.69 8.244 8.234z" style="" fill="#ffffff" data-original="#317f46" class=""></path><path d="M466.842 378.214v61.901c0 7.772-6.294 14.065-14.055 14.065h-14.136c-7.762 0-14.055-6.294-14.055-14.065v-61.901c0-6.766 5.489-12.246 12.246-12.246h17.755c6.766.001 12.245 5.48 12.245 12.246z" style="" fill="#ffffff" data-original="#ff9811" class=""></path><path d="M400.538 79.092h-48.881c-8.282 0-14.996-6.714-14.996-14.996V11.924a38.958 38.958 0 0 1 11.562 8.5l20.889 22.342 23.905 25.018a38.622 38.622 0 0 1 7.521 11.308z" style="" fill="#ffffff" data-original="#ffb655" class=""></path><path d="M224.686 480.753c0 5.258-2.152 10.024-5.61 13.492-3.469 3.459-8.234 5.61-13.492 5.61H88.558c-10.506 0-19.102-8.596-19.102-19.102 0-5.258 2.152-10.024 5.61-13.492 3.469-3.458 8.234-5.61 13.492-5.61h117.026c10.506 0 19.102 8.596 19.102 19.102z" style="" fill="#ffffff" data-original="#aa6100" class=""></path><path d="M224.686 442.548c0 5.258-2.152 10.024-5.61 13.492-3.469 3.458-8.234 5.61-13.492 5.61H88.558c-10.506 0-19.102-8.596-19.102-19.102 0-5.258 2.152-10.024 5.61-13.492 3.469-3.459 8.234-5.61 13.492-5.61h117.026c10.506 0 19.102 8.596 19.102 19.102z" style="" fill="#ffffff" data-original="#cc7400" class=""></path><path d="M224.686 404.344c0 5.258-2.152 10.024-5.61 13.492-3.469 3.459-8.234 5.61-13.492 5.61H88.558c-10.506 0-19.102-8.596-19.102-19.102 0-5.258 2.152-10.024 5.61-13.492 3.469-3.458 8.234-5.61 13.492-5.61h117.026c10.506 0 19.102 8.596 19.102 19.102z" style="" fill="#ffffff" data-original="#ee8700" class=""></path><path d="M224.686 366.139c0 5.258-2.152 10.024-5.61 13.492-3.469 3.458-8.234 5.61-13.492 5.61H88.558c-10.506 0-19.102-8.596-19.102-19.102 0-3.74 1.096-7.239 2.976-10.195a19.023 19.023 0 0 1 2.634-3.298c3.469-3.459 8.234-5.61 13.492-5.61h117.026c10.506.001 19.102 8.597 19.102 19.103z" style="" fill="#ffffff" data-original="#ff9811" class=""></path><path d="M205.58 347.038H88.558c-10.506 0-19.102-8.596-19.102-19.102s8.596-19.102 19.102-19.102H205.58c10.506 0 19.102 8.596 19.102 19.102s-8.596 19.102-19.102 19.102z" style="" fill="#ffffff" data-original="#ffa733" class=""></path><path d="M157.482 437.195c-1.217-28.513-21.435-51.727-47.926-57.94a62.239 62.239 0 0 0-16.848-1.58v-.002H68.353c-55.219 2.394-80.957 71.171-38.672 108.697 11.65 10.357 27.192 16.383 43.995 15.662h19.03v-.021c1.737.07 3.488.087 5.256.012a63.239 63.239 0 0 0 11.562-1.578c27.005-6.304 46.981-30.081 47.967-58.342v-.07c.062-1.601.062-3.21-.009-4.838z" style="" fill="#ffffff" data-original="#cc7400" class=""></path><path d="M157.492 442.031v.07c-.985 28.261-20.962 52.039-47.967 58.342-26.472-6.223-46.69-29.427-47.906-57.93-.01-.141-.02-.271-.02-.412v-.07c-1.056-30.161 19.555-56.14 47.957-62.776 26.492 6.213 46.71 29.427 47.926 57.94.071 1.628.071 3.237.01 4.836z" style="" fill="#ffffff" data-original="#ee8700" class=""></path><path d="M448.785 167.356h-36.908V94.727c0-12.437-4.946-24.029-13.04-32.504L374.99 37.269c-20.238-20.852-22.792-26.743-34.846-32.594C334.544 1.88 327.165 0 319.725 0H145.533c-25.949 0-47.052 21.113-47.052 47.052V300.79h-9.923c-14.97 0-27.145 12.175-27.145 27.145 0 7.45 3.016 14.196 7.882 19.102-4.866 4.906-7.882 11.652-7.882 19.102 0 2.795.392 4.454.533 5.369C3.04 377.5-20.426 450.41 22.685 489.982c13.02 11.954 30.302 18.73 49.042 17.966 6.193 0 133.695-.05 133.856-.05 14.96 0 27.145-12.175 27.145-27.145 0-7.45-3.016-14.196-7.882-19.102 4.574-4.615 7.51-10.838 7.842-17.755h10.185v5.439c0 34.555 28.11 62.665 62.665 62.665h143.247c34.555 0 62.665-28.11 62.665-62.665V230.021c.001-34.555-28.11-62.665-62.665-62.665zM344.708 28.442a84174.472 84174.472 0 0 1 40.044 42.337s.01 0 .02.02h.01c.01.02.03.04.04.05l.01.01c.02.03.04.05.06.06.01.01.02.02.03.04.01.01.02.01.02.02.01.01.02.01.03.03.02.01.03.03.04.04h-40.306l.002-42.607zM88.558 316.876h117.026c6.093 0 11.059 4.967 11.059 11.059 0 6.103-4.967 11.059-11.059 11.059H88.558c-6.093 0-11.059-4.957-11.059-11.059-.001-6.093 4.966-11.059 11.059-11.059zm0 38.204h117.026c6.093 0 11.059 4.967 11.059 11.059 0 6.103-4.967 11.059-11.059 11.059h-80.833a65.506 65.506 0 0 0-10.185-3.68 67.801 67.801 0 0 0-16.086-2.363 67.968 67.968 0 0 0-4.735.04h-15.01a10.873 10.873 0 0 1-1.237-5.057c0-6.091 4.967-11.058 11.06-11.058zm128.085 49.264c0 6.103-4.967 11.059-11.059 11.059h-45.011a67.658 67.658 0 0 0-13.653-22.118h58.664c6.092 0 11.059 4.966 11.059 11.059zM49.428 389.907a69.402 69.402 0 0 0-12.668 16.247h-9.37c6.123-7.591 13.734-12.99 22.038-16.247zm-30.594 31.327h11.713c-.261 1.126-1.589 5.459-2.192 12.055H15.979a52.85 52.85 0 0 1 2.855-12.055zm1.297 39.864a52.76 52.76 0 0 1-3.78-12.728h12.286c2.202 12.487 2.322 10.335 2.875 12.728H20.131zm10.034 15.08c4.936-.01 7.802.02 8.475-.02a67.92 67.92 0 0 0 10.818 13.09c-7.289-2.865-13.773-7.238-19.293-13.07zm68.627 16.7c-29.427 1.267-54.341-21.525-55.587-51.023-2.021-46.961 54.069-74.006 89.388-41.583 34.817 31.961 13.623 90.655-33.801 92.606zm106.792-1.066h-64.917a68.9 68.9 0 0 0 17.282-22.118h47.635c6.093 0 11.059 4.967 11.059 11.059 0 6.102-4.967 11.059-11.059 11.059zm10.969-47.916c-.664 5.469-5.329 9.712-10.969 9.712h-42.085a69.1 69.1 0 0 0 .975-22.118h41.11c6.776-.001 11.833 6.062 10.969 12.406zm26.32-16.087h-14.518a26.687 26.687 0 0 0-3.509-4.363c10.506-10.597 10.516-27.608 0-38.204 4.866-4.906 7.882-11.652 7.882-19.102 0-7.45-3.016-14.196-7.882-19.102 16.91-17.051 4.826-46.247-19.263-46.247h-91.017V47.052c0-17.071 13.894-30.966 30.966-30.966h183.09v63.007a8.04 8.04 0 0 0 8.043 8.043h58.171c1.679 6.515.643 4.363.955 80.219h-90.253c-34.555 0-62.665 28.11-62.665 62.665v197.789zm253.497 21.526c0 26.24-21.344 47.585-47.585 47.585H305.539c-26.23 0-47.585-21.344-47.585-47.585V230.021c0-26.24 21.354-47.585 47.585-47.585h143.247c26.24 0 47.585 21.344 47.585 47.585v219.314z" fill="#572a00" data-original="#000000" class=""></path><path d="M333.428 262.686h-27.356c-5.629 0-10.235-4.606-10.235-10.235v-27.598c0-5.629 4.606-10.235 10.235-10.235h142.181c5.65 0 10.235 4.595 10.235 10.235v27.598c0 5.64-4.585 10.235-10.235 10.235h-82.31a7.54 7.54 0 0 0 0 15.08h82.31c13.965 0 25.315-11.361 25.315-25.315v-27.598c0-13.955-11.351-25.315-25.315-25.315H306.072c-13.981 0-25.315 11.334-25.315 25.315v27.598c0 13.981 11.334 25.315 25.315 25.315h27.356a7.54 7.54 0 0 0 0-15.08zM296.541 415.755h25.768c8.707 0 15.784-7.078 15.784-15.784v-25.758c0-8.707-7.078-15.784-15.784-15.784h-25.768c-8.697 0-15.784 7.078-15.784 15.784v25.758c-.001 8.706 7.087 15.784 15.784 15.784zm-.704-41.542c0-.392.322-.704.704-.704h25.768c.382 0 .704.312.704.704v25.758a.706.706 0 0 1-.704.704h-25.768a.706.706 0 0 1-.704-.704v-25.758zM458.598 291.068H432.84c-8.707 0-15.784 7.078-15.784 15.784v25.758c0 8.707 7.078 15.784 15.784 15.784h25.758c8.707 0 15.784-7.078 15.784-15.784v-25.758c0-8.706-7.078-15.784-15.784-15.784zm.704 41.542a.7.7 0 0 1-.704.704H432.84a.706.706 0 0 1-.704-.704c.312-25.486-.654-26.462.704-26.462h25.758a.7.7 0 0 1 .704.704v25.758zM296.541 348.394h25.768c8.707 0 15.784-7.078 15.784-15.784v-25.758c0-8.707-7.078-15.784-15.784-15.784h-25.768c-8.697 0-15.784 7.078-15.784 15.784v25.758c-.001 8.707 7.087 15.784 15.784 15.784zm-.704-41.542c0-.392.322-.704.704-.704h25.768c.382 0 .704.312.704.704v25.758a.706.706 0 0 1-.704.704h-25.768a.706.706 0 0 1-.704-.704v-25.758zM334.122 427.809c-2.896-3.257-7.118-5.318-11.813-5.318h-25.768a15.737 15.737 0 0 0-11.803 5.318c-5.479 6.143-3.619 12.839-3.981 16.086v20.138c0 8.707 7.088 15.784 15.784 15.784h25.768c8.707 0 15.784-7.078 15.784-15.784v-20.138c-.362-3.176 1.478-9.943-3.971-16.086zm-11.813 36.928c-25.456-.312-26.472.653-26.472-.704 0-27.276-.302-26.462.704-26.462h25.768c1.237 0 .473 1.719.704 6.324-.001.001.653 20.842-.704 20.842zM454.596 358.428h-17.755c-10.908 0-19.786 8.878-19.786 19.786v79.998c0 11.914 9.692 21.606 21.596 21.606h14.136c11.914 0 21.596-9.692 21.596-21.606v-79.998c-.001-10.908-8.868-19.786-19.787-19.786zm4.706 99.784c0 3.599-2.916 6.525-6.515 6.525h-14.136c-3.589 0-6.515-2.926-6.515-6.525v-79.998a4.71 4.71 0 0 1 4.705-4.705h17.755a4.71 4.71 0 0 1 4.705 4.705l.001 79.998zM194.647 219.028c-9.194-3.378-15.836-5.818-15.836-14.336 0-7.763 5.156-11.699 15.323-11.699 10.793 0 13.699 4.751 17.501 4.751 4.138 0 6.427-4.392 6.427-7.428 0-6.282-10.247-9.397-19.407-10.219v-5.664c0-3.94-3.205-7.145-7.145-7.145s-7.145 3.205-7.145 7.145V181c-12.525 2.974-19.407 11.625-19.407 24.443 0 17.55 12.92 22.405 23.304 26.308 10.166 3.82 18.197 6.838 18.197 18.445 0 9.587-5.323 14.448-15.824 14.448-15.368 0-15.512-10.376-21.374-10.376-3.63 0-6.554 4.064-6.554 7.428 0 5.942 8.849 13.752 21.658 15.779v5.473c0 3.94 3.205 7.145 7.145 7.145s7.145-3.205 7.145-7.145v-5.62c13.778-2.593 21.658-12.71 21.658-27.883-.001-20.987-14.231-26.215-25.666-30.417zM390.051 422.491h-25.768c-4.695 0-8.918 2.061-11.813 5.318-5.459 6.153-3.609 12.839-3.971 16.086v20.138c0 8.707 7.078 15.784 15.784 15.784h25.768c8.697 0 15.774-7.078 15.774-15.784v-25.768c0-4.454-1.86-8.485-4.836-11.351a15.721 15.721 0 0 0-10.938-4.423zm0 42.246c-25.456-.312-26.472.653-26.472-.704v-25.768c0-.382.322-.694.704-.694h25.768c.382 0 .694.312.694.694-.302 25.517.643 26.472-.694 26.472zM390.051 291.068h-25.768c-8.707 0-15.784 7.078-15.784 15.784v25.758c0 8.707 7.078 15.784 15.784 15.784h25.768c2.031 0 3.961-.382 5.741-1.086 5.871-2.302 10.034-8.023 10.034-14.699v-25.758c-.001-8.736-7.119-15.783-15.775-15.783zm.694 41.542a.698.698 0 0 1-.694.704h-25.768a.706.706 0 0 1-.704-.704v-25.758c0-1.357.935-.402 26.472-.704.382 0 .694.312.694.704v25.758zM395.792 359.514a15.546 15.546 0 0 0-5.741-1.086h-25.768c-8.707 0-15.784 7.078-15.784 15.784v25.758c0 8.707 7.078 15.784 15.784 15.784h25.768c8.697 0 15.774-7.078 15.774-15.784v-25.758c0-6.675-4.162-12.396-10.033-14.698zm-5.047 40.456a.698.698 0 0 1-.694.704h-25.768a.706.706 0 0 1-.704-.704v-25.758c0-.392.322-.704.704-.704h25.768c.382 0 .694.312.694.704v25.758zM327.587 118.122h18.941a7.536 7.536 0 0 0 7.54-7.54 7.543 7.543 0 0 0-7.54-7.54h-18.941a7.543 7.543 0 0 0-7.54 7.54 7.535 7.535 0 0 0 7.54 7.54zM163.71 118.122h133.716a7.536 7.536 0 0 0 7.54-7.54 7.543 7.543 0 0 0-7.54-7.54H163.71a7.543 7.543 0 0 0-7.54 7.54 7.536 7.536 0 0 0 7.54 7.54zM187.678 155.552c4.162 0 7.54-3.378 7.54-7.54s-3.378-7.54-7.54-7.54H163.71c-4.162 0-7.54 3.378-7.54 7.54s3.378 7.54 7.54 7.54h23.968zM354.069 148.012a7.543 7.543 0 0 0-7.54-7.54h-128.69c-4.162 0-7.54 3.378-7.54 7.54s3.378 7.54 7.54 7.54h128.689a7.544 7.544 0 0 0 7.541-7.54zM93.742 424.154c0-1.895.698-2.439 1.351-2.801 2.026-1.121 6.674-1.451 10.931.739 1.131.581 2.413 1.24 4.081 1.24 7.437 0 13.319-13.819-4.446-16.874v-.475c0-4.213-3.428-7.641-7.641-7.641s-7.641 3.428-7.641 7.641v1.45c-7.444 2.7-11.655 8.839-11.655 17.172 0 12.86 9.343 16.371 16.167 18.934 6.507 2.445 8.757 3.515 8.757 7.941 0 2.767-.745 5.328-6.154 5.328-7.882 0-6.938-6.23-12.837-6.23-4.169 0-7.286 4.123-7.286 7.81 0 5.224 5.432 10.182 13.008 12.192v.572c0 4.213 3.428 7.641 7.641 7.641s7.641-3.427 7.641-7.641v-.772c8.198-2.635 13.007-9.694 13.007-19.35.002-22.913-24.924-19.473-24.924-26.876z" fill="#572a00" data-original="#000000" class=""></path></g></svg>