<svg width="26" height="26" viewBox="0 0 26 26" fill="none" xmlns="http://www.w3.org/2000/svg">
<path d="M12.076 17.7918C11.6536 18.0691 11.2207 18.0904 10.7771 17.8558C10.3336 17.6211 10.1118 17.2477 10.1118 16.7357V9.8875C10.1118 9.37548 10.3336 9.00213 10.7771 8.76746C11.2207 8.53278 11.6536 8.55412 12.076 8.83146L17.335 12.2236C17.5251 12.3516 17.6674 12.5116 17.762 12.7036C17.8575 12.8956 17.9052 13.0983 17.9052 13.3116C17.9052 13.525 17.8575 13.7276 17.762 13.9196C17.6674 14.1116 17.5251 14.2716 17.335 14.3996L12.076 17.7918ZM10.5554 25.824C9.81616 25.6534 9.10356 25.4294 8.41757 25.152C7.73074 24.8747 7.05996 24.5227 6.40523 24.096C6.06731 23.8826 5.88272 23.584 5.85146 23.1999C5.81936 22.8159 5.95115 22.4746 6.24683 22.1759C6.45803 21.9626 6.72711 21.8401 7.05405 21.8085C7.38183 21.7761 7.68301 21.8452 7.95757 22.0159C8.42222 22.3146 8.90292 22.565 9.39967 22.7673C9.89557 22.9704 10.4075 23.1359 10.9355 23.2639C11.2312 23.3493 11.4796 23.5148 11.6807 23.7606C11.8809 24.0055 11.981 24.2773 11.981 24.576C11.981 25.0027 11.8386 25.3385 11.5539 25.5834C11.2684 25.8292 10.9355 25.9094 10.5554 25.824ZM4.44104 20.3518C4.14536 20.6505 3.81293 20.7836 3.44374 20.7512C3.07372 20.7196 2.7831 20.5439 2.5719 20.2238C2.14949 19.6052 1.79594 18.9493 1.51124 18.2564C1.22569 17.5626 0.998437 16.8317 0.829474 16.0637C0.723873 15.6797 0.792302 15.3383 1.03476 15.0397C1.27807 14.741 1.61092 14.5917 2.03333 14.5917C2.32902 14.5917 2.60358 14.6983 2.85702 14.9117C3.11047 15.125 3.27943 15.381 3.36391 15.6797C3.49063 16.2344 3.65959 16.7571 3.8708 17.2477C4.082 17.7384 4.32488 18.2184 4.59945 18.6878C4.76841 18.9438 4.83684 19.2318 4.80474 19.5518C4.77348 19.8718 4.65225 20.1385 4.44104 20.3518ZM2.06501 12.0316C1.64261 12.0316 1.30468 11.8822 1.05124 11.5836C0.797794 11.2849 0.713313 10.9435 0.797794 10.5595C0.966756 9.81283 1.19908 9.08192 1.49476 8.3668C1.79045 7.65254 2.14949 6.98606 2.5719 6.36738C2.7831 6.04737 3.07372 5.87669 3.44374 5.85536C3.81293 5.83403 4.14536 5.9727 4.44104 6.27137C4.65225 6.48471 4.77348 6.75139 4.80474 7.0714C4.83684 7.39141 4.76841 7.67942 4.59945 7.93543C4.32488 8.38345 4.082 8.85791 3.8708 9.35884C3.65959 9.86061 3.49063 10.3888 3.36391 10.9435C3.27943 11.2422 3.11596 11.4982 2.8735 11.7116C2.63019 11.9249 2.3607 12.0316 2.06501 12.0316ZM15.9094 25.792C15.5292 25.8774 15.2018 25.8027 14.9273 25.568C14.6527 25.3334 14.5154 25.0133 14.5154 24.608C14.5154 24.3093 14.616 24.032 14.817 23.776C15.0172 23.52 15.2652 23.3493 15.5609 23.2639C17.8208 22.6666 19.6793 21.4561 21.1366 19.6325C22.5939 17.808 23.3226 15.701 23.3226 13.3116C23.3226 10.9222 22.5939 8.79946 21.1366 6.9434C19.6793 5.08733 17.8208 3.88196 15.5609 3.32727C15.2652 3.24194 15.0172 3.07639 14.817 2.83062C14.616 2.5857 14.5154 2.31391 14.5154 2.01523C14.5154 1.60988 14.6582 1.28433 14.9437 1.03856C15.2284 0.793643 15.5609 0.713853 15.941 0.799189C18.8345 1.43921 21.2106 2.92193 23.0691 5.24734C24.9277 7.57275 25.857 10.2608 25.857 13.3116C25.857 16.341 24.9227 19.0078 23.0539 21.3119C21.1844 23.616 18.8028 25.1093 15.9094 25.792ZM7.86253 4.63932C7.58797 4.80999 7.29778 4.87399 6.99195 4.83133C6.68529 4.78866 6.42635 4.66065 6.21515 4.44731C5.91947 4.14864 5.78767 3.80729 5.81978 3.42328C5.85104 3.03927 6.03563 2.74059 6.37355 2.52725C7.02828 2.10057 7.70413 1.74855 8.4011 1.47121C9.09807 1.19387 9.81616 0.969862 10.5554 0.799189C10.9355 0.713853 11.2684 0.793643 11.5539 1.03856C11.8386 1.28433 11.981 1.60988 11.981 2.01523C11.981 2.31391 11.8754 2.5857 11.6642 2.83062C11.453 3.07639 11.1995 3.24194 10.9039 3.32727C10.3758 3.45528 9.8584 3.63107 9.35151 3.85465C8.84463 4.07909 8.3483 4.34064 7.86253 4.63932Z" fill="#FDFDFD"/>
</svg>
