<svg width="24" height="24" viewBox="0 0 24 24" fill="none" xmlns="http://www.w3.org/2000/svg">
<path d="M3.4833 23.6622C2.78965 23.6622 2.19564 23.4155 1.70125 22.9219C1.20771 22.4275 0.960938 21.8335 0.960938 21.1399V3.4833C0.960938 2.78965 1.20771 2.19564 1.70125 1.70125C2.19564 1.20771 2.78965 0.960938 3.4833 0.960938H21.1399C21.8335 0.960938 22.4275 1.20771 22.9219 1.70125C23.4155 2.19564 23.6622 2.78965 23.6622 3.4833V21.1399C23.6622 21.8335 23.4155 22.4275 22.9219 22.9219C22.4275 23.4155 21.8335 23.6622 21.1399 23.6622H3.4833ZM3.4833 21.1399H21.1399V3.4833H3.4833V21.1399ZM4.74449 18.6175H19.8787L15.1492 12.3116L11.3657 17.3563L8.52804 13.5728L4.74449 18.6175ZM3.4833 21.1399V3.4833V21.1399Z" fill="#FDFDFD"/>
</svg>
