<svg width="18" height="14" viewBox="0 0 18 14" fill="none" xmlns="http://www.w3.org/2000/svg">
<path d="M9.05794 0H9.15807C10.0829 0.00373699 14.7688 0.0411071 16.0323 0.417297C16.4142 0.532108 16.7623 0.755896 17.0416 1.0663C17.321 1.3767 17.5219 1.76284 17.6242 2.18614C17.7379 2.65949 17.8177 3.28606 17.8717 3.93256L17.883 4.06211L17.9077 4.38598L17.9167 4.51553C17.9899 5.65406 17.9989 6.72035 18 6.95329V7.04671C17.9989 7.28837 17.9887 8.4269 17.9077 9.61278L17.8987 9.74357L17.8886 9.87312C17.8324 10.5856 17.7491 11.2932 17.6242 11.8139C17.5222 12.2373 17.3214 12.6237 17.042 12.9341C16.7626 13.2446 16.4144 13.4682 16.0323 13.5827C14.7272 13.9713 9.76674 13.9988 9.07932 14H8.91956C8.57191 14 7.13407 13.9925 5.62648 13.9352L5.43521 13.9278L5.33733 13.9228L5.14495 13.914L4.95256 13.9053C3.70373 13.8443 2.51453 13.7459 1.96662 13.5815C1.58465 13.4671 1.23653 13.2436 0.957125 12.9334C0.677724 12.6232 0.476857 12.2371 0.374648 11.8139C0.249766 11.2944 0.16651 10.5856 0.110257 9.87312L0.101256 9.74232L0.0922558 9.61278C0.0367308 8.76871 0.00596272 7.92288 0 7.07661L0 6.92339C0.00225014 6.65557 0.0112507 5.73005 0.0720045 4.7086L0.07988 4.5803L0.0832552 4.51553L0.0922558 4.38598L0.117007 4.06211L0.128258 3.93256C0.182261 3.28606 0.262141 2.65824 0.375773 2.18614C0.47781 1.76267 0.6786 1.37635 0.958012 1.06589C1.23742 0.755437 1.58564 0.531764 1.96775 0.417297C2.51566 0.255361 3.70486 0.155708 4.95368 0.0934246L5.14495 0.084705L5.33846 0.0772313L5.43521 0.0734942L5.6276 0.0647746C6.69834 0.0266257 7.76952 0.00544711 8.8408 0.00124572H9.05794V0ZM7.20045 3.99858V10.0002L11.8774 7.00062L7.20045 3.99858Z" fill="#F2F2F2"/>
</svg>
